<svg width="361" height="12" viewBox="0 0 361 12" fill="none" xmlns="http://www.w3.org/2000/svg">
<path d="M360.333 5.99894C360.333 3.05342 357.944 0.66608 354.999 0.666667C352.053 0.667254 349.666 3.05554 349.667 6.00106C349.667 8.94658 352.056 11.3339 355.001 11.3333C357.947 11.3327 360.334 8.94446 360.333 5.99894ZM11.3346 6.06848C11.334 3.12296 8.94567 0.735624 6.00015 0.736211C3.05462 0.736798 0.667281 3.12509 0.667868 6.07061C0.668455 9.01613 3.05675 11.4035 6.00227 11.4029C8.9478 11.4023 11.3351 9.014 11.3346 6.06848ZM355 5L6.00101 5.06954L6.00141 7.06954L355 7L355 5Z" fill="white"/>
</svg>
