<svg width="384" height="377" viewBox="0 0 384 377" fill="none" xmlns="http://www.w3.org/2000/svg">
<path d="M181 11.5L169.7 22.9L173.4 26.4C175.4 28.4 177.5 30 178.2 30C178.8 30 182.2 27.1 185.7 23.4C193 16 192.1 15.9 200.5 24.7C203.3 27.6 206.3 30 207.1 30C207.9 30 210.1 28.4 212 26.5L215.3 23.1L211.4 18.8C209.3 16.4 204.1 11.2 200 7.3L192.4 -4.47035e-07L181 11.5Z" fill="white"/>
<path d="M189.1 30.4C187.4 32.2 186.3 33.9 186.6 34.3C187 34.7 190 35 193.2 35C199.7 35 200.6 33.8 196.7 30.4C192.8 27 192.4 27 189.1 30.4Z" fill="white"/>
<path d="M161.2 31.3C158.4 34.3 159.2 35 165.2 35C170.6 35 171 34.3 167.7 31.2C164.8 28.4 163.9 28.4 161.2 31.3Z" fill="white"/>
<path d="M217.2 31.3C214.4 34.3 215.2 35 221.2 35C226.5 35 227.1 34.1 223.8 31C221 28.4 219.8 28.5 217.2 31.3Z" fill="white"/>
<path d="M221.8 41.8C220.2 42 219 42.4 219 42.7C219 43.9 337.5 162 338.7 162C339.6 162 340 160 340 154.8V147.5L287.3 94.9L234.7 42.2L229.6 41.8C226.8 41.7 223.3 41.6 221.8 41.8Z" fill="white"/>
<path d="M89 84.5C48.4 125.1 46.5 127.1 46.2 131C46 133.2 46.3 135 46.7 135C47.7 135 139 43.8 139 42.7C139 42.3 137.3 42 135.3 42C131.6 42 129.9 43.6 89 84.5Z" fill="white"/>
<path d="M98.3 94.2L46.1 146.5L45.9 153.9C45.8 158 46.1 161.5 46.6 161.7C47.6 162 166 44 166 42.7C166 42.3 162.5 42 158.2 42H150.5L98.3 94.2Z" fill="white"/>
<path d="M112 107.5C76 143.5 46.3 173.5 46.1 174.1C45.8 175.2 52.8 183 54.1 183C54.4 183 84.5 153.2 120.9 116.9L187.2 50.8L182.9 46.4C180.5 44 178.3 42 178 42C177.7 42 148 71.5 112 107.5Z" fill="white"/>
<path d="M202.7 45.8C200.7 47.9 199 50 199 50.6C199 51.2 323.3 176.3 330.6 182.9C331.3 183.6 339 175.8 339 174.4C339 173.1 208.5 42 207.2 42C206.8 42 204.7 43.7 202.7 45.8Z" fill="white"/>
<path d="M246 42.8C246 44.1 337.4 135 338.8 135C339.5 135 340 133.6 340 131.4C340 128 337.8 125.6 297 84.9C254.6 42.6 254 42 250 42C247.8 42 246 42.3 246 42.8Z" fill="white"/>
<path d="M129.5 118.3C95.4 152.6 65.7 182.6 63.5 184.9L59.6 189L125.5 255C161.8 291.3 192 321 192.6 321C193.7 321 325 190.2 325 189C325 188 193.5 56 192.5 56C191.9 56 163.6 84 129.5 118.3ZM165.9 142.5C168.2 143.3 172.1 145.4 174.7 147.1C179.9 150.7 182.3 150.3 182.8 145.6C183 144.2 183.8 143 184.6 143C185.7 143 186 145.6 186 157.5C186 169.4 185.7 172 184.6 172C183 172 182.5 170.7 181.5 164.3C180.1 155.2 171.5 146.3 161.9 144C141.1 139 127.6 154.2 126.3 184.1C125.2 207.9 131.4 224 144.2 230.4C156.3 236.4 173.3 231.4 178.9 220.1C179.9 218.1 181.3 213.5 182 209.7C182.8 205.3 183.7 203 184.6 203C185.7 203 186 206 186 218.6C186 230.6 185.7 234.1 184.8 233.8C184.1 233.5 183.3 232 183 230.4C182.3 226.3 179.5 226.3 172.6 230.4C158.2 239 138.8 237 126.1 225.5C121.1 221 115.6 210 114.1 201.6C109 173.8 120.8 149.2 142.3 142.5C148 140.7 160.8 140.7 165.9 142.5ZM241.6 144.7C248 148 249.3 147.9 250.5 144.2C251.4 141.1 253.5 142 253.4 145.3C253.4 146.8 253.3 152.5 253.2 158C253 166.1 252.7 168 251.5 168C250.7 168 250 167.2 250 166.2C250 165.2 249.2 162.1 248.3 159.4C244.6 148.4 239.2 144 229.4 144C219.2 144 213.7 149 213.7 158.4C213.7 166.9 216 169.6 232.4 180.4C253.6 194.3 258 199.6 258 211.5C258 218.9 255.6 224.4 250.5 228.9C244.6 234 240.6 235.4 231 235.4C223.4 235.5 221.7 235.1 215.5 232.2C209 229.1 208.5 229 207.3 230.6C206.6 231.6 206 233 206 233.8C206 235.8 203.6 234.7 203.1 232.5C202.9 231.5 203.1 224.6 203.5 217.3C204.3 202.5 205.5 200.6 207.6 210.9C208.9 217.4 211.9 224 214.8 227.4C219.3 232.3 229.8 234.5 236.7 231.9C244.2 229.1 248.4 219.9 246.1 211.2C244.5 205.5 240 201.2 226 191.9C213 183.3 208.6 179.3 205.9 173.5C203.2 167.7 203.4 158.6 206.3 153C212.1 141.5 228.1 137.7 241.6 144.7Z" fill="white"/>
<path d="M34 158.5L31.6 161L34.5 164C37.8 167.4 38.7 167.2 38.4 163.3C38.3 161.8 38.2 159.5 38.1 158.2C38 155.3 36.9 155.4 34 158.5Z" fill="white"/>
<path d="M346.9 156.2C346.4 157.8 346.4 166.1 347 166.5C347.4 166.7 349 165.6 350.5 164L353.4 161L351 158.5C349 156.4 347.2 155.4 346.9 156.2Z" fill="white"/>
<path d="M5.5 183L0.5 188L5.7 193.2L10.9 198.4L15.8 193.9C18.6 191.5 20.8 189 20.9 188.4C21 187 13 178 11.5 178C10.9 178 8.2 180.3 5.5 183Z" fill="white"/>
<path d="M368.6 182.9L363.7 187.9L368.8 193.2L373.9 198.5L378.9 193.5C381.7 190.8 384 188.1 384 187.6C384 186.2 375.9 178 374.5 178C373.9 178 371.2 180.2 368.6 182.9Z" fill="white"/>
<path d="M50.2 198.3C48.4 200.1 47 202 47 202.6C47 204.2 177.4 334 179.1 334C181 334 186 328.9 186 327C186 325.4 56.1 195 54.5 195C53.9 195 52 196.5 50.2 198.3Z" fill="white"/>
<path d="M263.6 260.9L197.7 326.8L201.8 331.1L205.9 335.5L272 269.5C308.3 233.2 338 203 338 202.3C338 200.7 332.4 195 330.8 195C330.1 195 299.8 224.7 263.6 260.9Z" fill="white"/>
<path d="M34.7 213.6C33.2 215 32 216.4 32 216.9C32 218.2 37.6 223.1 38.3 222.3C39.3 221.4 39.2 212.2 38.2 211.6C37.7 211.3 36.2 212.2 34.7 213.6Z" fill="white"/>
<path d="M346.7 211.6C346.3 212 346 214.5 346 217.2C346 222.8 347.4 223.4 351 219.5L353.4 216.9L350.4 213.9C348.7 212.3 347.1 211.3 346.7 211.6Z" fill="white"/>
<path d="M46 222.7V231.4L98.3 283.7L150.5 336H159.3C164.1 336 168 335.7 168 335.2C168 334.3 47.7 214 46.7 214C46.3 214 46 217.9 46 222.7Z" fill="white"/>
<path d="M277.2 274.3C244.1 307.4 217 334.8 217 335.3C217 335.7 220.9 336 225.8 336H234.5L287.3 283.2L340 230.5V222.2C340 216.3 339.6 214 338.7 214C338.1 214 310.4 241.1 277.2 274.3Z" fill="white"/>
<path d="M46 246V250.5L88.8 293.3C130.2 334.7 131.6 336 135.3 336C137.4 336 139 335.6 138.8 335.1C138.5 334.2 61.4 256.3 51.2 246.5L46 241.6V246Z" fill="white"/>
<path d="M292.5 288C267.2 313.2 246.4 334.4 246.2 335C246 335.6 247.5 336 249.7 336C253.4 336 254.8 334.7 296.8 292.7C338.4 251.1 340 249.3 340 245.7C340 243.7 339.6 242 339.2 242C338.8 242 317.8 262.7 292.5 288Z" fill="white"/>
<path d="M159.7 343.7C158.8 344.5 162.9 349 164.5 349C165.7 349 170 344.9 170 343.7C170 342.8 160.5 342.8 159.7 343.7Z" fill="white"/>
<path d="M188 343.8C188 345 191.4 348 192.7 348C193.8 348 197 344.8 197 343.7C197 343.3 195 343 192.5 343C190 343 188 343.4 188 343.8Z" fill="white"/>
<path d="M215.7 343.7C214.8 344.5 218.9 349 220.5 349C222.1 349 226.2 344.5 225.3 343.7C225 343.3 222.8 343 220.5 343C218.2 343 216 343.3 215.7 343.7Z" fill="white"/>
<path d="M174.7 349.8C172.7 351.9 171 354.2 171 355C171 356.6 190.9 377 192.5 377C193.1 377 198.5 372 204.5 366L215.5 355L210.7 350.3L206 345.5L199.7 351.8C196.3 355.2 193 358 192.4 358C191.9 358 188.8 355.3 185.5 352C182.2 348.7 179.3 346 179 346C178.7 346 176.7 347.7 174.7 349.8Z" fill="white"/>
</svg>
